# xmcd CD database file
#
# Track frame offsets:
#	182
#	16650
#	41320
#	68270
#	91582
#	113485
#	146010
#	164860
#
# Disc length: 2575 seconds
#
# Revision: 0
# Processed by: cddbd v1.5.2PL0 Copyright (c) Steve Scherf et al.
# Submitted via: CDex 1.51
#
DISCID=540a0d08
DTITLE=Sharon Evans Group - Time To Live
DYEAR=1991
DGENRE=Jazz
TTITLE0=Tumble Me Down
TTITLE1=Collioure
TTITLE2=Sweet Lovin
TTITLE3=Time To Live
TTITLE4=Autostop
TTITLE5=Chain Reaction
TTITLE6=Hold Back The Night
TTITLE7=Well Cooked Cat
EXTD=YEAR: 1991
EXTT0=
EXTT1=
EXTT2=
EXTT3=
EXTT4=
EXTT5=
EXTT6=
EXTT7=
PLAYORDER=
